<?xml version="1.0" standalone="no"?>
<!DOCTYPE svg PUBLIC "-//W3C//DTD SVG 20010904//EN"
 "http://www.w3.org/TR/2001/REC-SVG-20010904/DTD/svg10.dtd">
<svg version="1.0" xmlns="http://www.w3.org/2000/svg"
 width="393.000000pt" height="393.000000pt" viewBox="0 0 393.000000 393.000000"
 preserveAspectRatio="xMidYMid meet">
<metadata>
Created by potrace 1.14, written by Peter Selinger 2001-2017
</metadata>
<g transform="translate(0.000000,393.000000) scale(0.100000,-0.100000)"
fill="#000000" stroke="none">
<path d="M3382 3695 c-124 -35 -247 -129 -324 -248 -21 -32 -36 -46 -47 -43
-199 59 -402 57 -575 -3 -259 -91 -476 -323 -553 -591 -32 -110 -40 -298 -17
-414 28 -144 92 -277 190 -392 l53 -63 -49 -36 c-226 -166 -274 -451 -108
-640 69 -79 158 -120 342 -160 136 -29 170 -33 401 -50 39 -3 79 -7 90 -9 11
-2 40 -7 65 -11 63 -9 207 -53 255 -77 76 -39 131 -86 161 -140 25 -46 29 -63
29 -133 0 -91 -26 -162 -86 -229 -118 -134 -342 -164 -453 -60 -15 15 -34 41
-41 57 l-13 31 55 22 c78 32 126 68 154 117 20 35 24 56 24 128 0 77 -3 90
-28 127 -52 79 -148 123 -259 118 -162 -6 -282 -133 -295 -311 -16 -207 126
-394 362 -475 83 -29 135 -35 275 -34 197 1 331 48 465 165 65 56 137 152 172
229 79 172 80 411 3 575 -69 146 -191 260 -338 315 -67 25 -222 66 -283 75
-24 3 -51 8 -59 10 -40 11 -144 20 -325 30 -55 3 -111 7 -125 10 -14 2 -59 8
-100 14 -41 6 -98 17 -126 26 -49 14 -103 55 -105 79 0 6 -3 23 -5 39 -5 29
21 96 40 103 7 3 47 -16 91 -41 81 -46 195 -88 275 -102 25 -4 104 -7 175 -7
101 0 149 5 213 22 274 71 512 292 604 559 36 107 43 152 43 303 -1 140 -23
246 -74 356 -68 146 -189 285 -321 369 -41 27 -76 49 -78 51 -9 6 31 65 71
103 60 58 111 80 181 77 71 -3 83 -14 61 -56 -40 -78 -28 -165 33 -232 44 -49
76 -66 136 -71 112 -11 235 108 236 229 0 110 -89 230 -205 273 -77 29 -191
36 -263 16z m-573 -380 c61 -21 107 -58 134 -108 22 -42 22 -43 25 -616 3
-651 3 -651 -68 -720 -51 -49 -105 -70 -177 -67 -106 3 -191 66 -218 160 -14
46 -15 132 -13 627 3 569 3 574 25 615 53 99 184 148 292 109z"/>
<path d="M748 3475 c-1 -2 -27 -6 -57 -10 -227 -29 -450 -174 -537 -350 -98
-199 -82 -461 37 -618 85 -112 200 -192 466 -325 100 -50 200 -102 222 -116
22 -14 43 -26 47 -26 15 0 165 -113 194 -147 107 -121 102 -266 -12 -382 -85
-86 -197 -125 -358 -126 -191 0 -306 48 -347 146 -10 24 -9 26 36 42 147 52
202 261 97 369 -99 102 -267 101 -362 -4 -158 -175 -77 -476 163 -601 160 -83
331 -119 538 -112 140 4 153 6 263 35 238 65 419 241 468 457 14 61 13 229 -1
296 -35 167 -136 303 -308 417 -60 40 -141 81 -441 224 -306 146 -425 283
-386 446 32 132 224 250 400 244 160 -4 285 -57 324 -135 14 -27 13 -31 -2
-36 -121 -40 -182 -118 -182 -229 0 -139 113 -241 254 -228 59 6 88 17 133 51
155 119 144 390 -22 542 -90 81 -236 147 -380 170 -56 8 -239 13 -247 6z"/>
</g>
</svg>
